<?xml version="1.0" encoding="utf-8"?>
<!-- Uploaded to: SVG Repo, www.svgrepo.com, Generator: SVG Repo Mixer Tools -->
<svg fill="#000000" width="800px" height="800px" viewBox="-8 0 32 32" version="1.1" xmlns="http://www.w3.org/2000/svg">
<title>hashtag</title>
<path d="M14.88 18.52h-2.8v-5.040h2.8c0.48 0 0.84-0.36 0.84-0.84s-0.36-0.84-0.84-0.84h-2.8v-3c0-0.48-0.36-0.84-0.84-0.84s-0.84 0.4-0.84 0.84v2.96h-5.040v-2.96c0-0.48-0.36-0.84-0.84-0.84s-0.84 0.4-0.84 0.84v2.96h-2.8c-0.48 0-0.84 0.36-0.84 0.84s0.36 0.84 0.84 0.84h2.8v5.080h-2.8c-0.48 0-0.84 0.36-0.84 0.84s0.36 0.84 0.84 0.84h2.8v3c0 0.48 0.36 0.84 0.84 0.84s0.84-0.36 0.84-0.84v-2.96h5.080v2.96c0 0.48 0.36 0.84 0.84 0.84s0.84-0.36 0.84-0.84v-2.96h2.8c0.48 0 0.84-0.36 0.84-0.84s-0.44-0.88-0.88-0.88zM5.36 18.52v-5.040h5.080v5.080h-5.080v-0.040z"></path>
</svg>